<svg
   viewBox="0 0 100 100"
   version="1.1"
   id="svg5"
   xmlns="http://www.w3.org/2000/svg"
   >
  <g
     id="layer1"
     style="display:inline">
    <rect
       style="display:inline;fill:#0094ff;fill-opacity:1;stroke:#919191;stroke-width:0;stroke-linecap:round;stroke-dasharray:none;paint-order:markers fill stroke"
       id="rect608"
       width="100"
       height="100"
       x="5e-07"
       y="5e-07"
       ry="0" />
    <path
       style="fill:#d1ba93;fill-opacity:1;stroke:#343434;stroke-width:0.5;stroke-linecap:round;stroke-dasharray:none;stroke-opacity:1;paint-order:markers fill stroke"
       d="m 19.217031,7.6724677 c 0,0 -0.02784,-0.695705 -0.288159,-0.7585577 C 18.743229,6.5182838 18.263965,7.1221664 17.797946,7.0396463 17.310815,7.3092702 17.217203,6.7176045 16.615712,6.6290657 16.35927,6.3824758 15.365456,6.3226944 14.553527,6.2786438 14.068077,6.1214469 13.047915,6.2044128 12.310565,6.2605461 11.63838,6.2713707 10.630727,6.4035098 10.058346,6.5459739 9.1428854,6.6708834 9.746717,6.4517436 9.43233,6.6527309 8.9972795,6.9308584 7.3316517,8.1492809 7.0585975,8.592994 6.805207,9.0047536 7.0425105,9.6056243 6.8168383,10.322359 c 0.2459407,0.752366 -0.4818454,1.971479 -0.6963436,2.937016 -0.2071667,1.186654 0.2847458,1.793981 0.1230158,2.711282 0.4557081,1.144053 -1.0377329,2.39629 -1.2264191,3.494724 -0.8228007,1.213679 0.00881,1.321452 -0.084089,2.250909 0.1851707,0.59067 -0.272099,2.050774 -0.3317033,3.191369 -0.09551,0.552725 -0.059356,2.09437 -0.013744,2.942574 0.03832,0.712595 0.3052894,1.219687 0.4164473,1.553161 0.1266953,0.380086 0.2503748,0.801399 0.4995713,1.124295 0.1797044,0.398323 0.5770596,0.801537 0.9261835,1.079364 0.3437616,0.437059 1.0503096,1.527518 1.4350117,1.749608 0.5846594,1.159073 0.3086666,-0.374763 0.5351694,-0.27677 0.4368803,-0.364934 1.0883449,0.720429 1.6864777,0.944769 0.389489,0.428479 1.158738,0.329985 1.628725,0.486393 0.623616,0.142412 0.47409,0.330203 0.813118,0.504847 0.38939,0.200588 1.117521,0.265658 1.469446,0.58239 0.316738,0.285064 0.686858,0.345099 0.967278,0.730713 0.388165,0.154789 0.388573,0.527036 0.649283,1.066615 0.06255,0.175386 0.552798,1.122972 0.775334,1.800428 0.189039,0.423396 -0.12034,0.357169 0.0076,0.916975 -0.286045,-0.0178 0.547316,1.411678 0.686705,2.205801 0.29799,0.393034 0.06534,0.956042 0.08321,1.444105 -0.0587,0.400972 0.188913,0.812956 0.164638,1.215249 -0.02564,0.424923 -0.34016,0.904395 -0.444384,1.1389 -0.126696,0.285064 -0.326685,0.55411 -0.617213,0.784241 -0.272592,0.247677 -0.358801,0.450489 -0.771199,0.643288 -0.177257,0.232988 -1.286552,1.081318 -1.870823,1.276012 -0.624786,0.778596 -0.771665,0.113222 -1.142825,0.207305 -0.548839,0.01802 -0.410618,0.343351 -0.895333,0.466833 -0.0077,0.25314 -1.41039,-0.231677 -2.0284353,-0.03821 C 9.006017,49.058337 9.2689714,49.98114 8.9701699,50.333741 8.706745,50.644596 7.8901077,51.13263 7.7835121,51.399119 7.6568168,51.715858 7.489404,51.90276 7.3112169,52.359142 c -0.2062268,0.292537 -1.2385002,1.307747 -1.472025,1.936989 -0.9822251,0.659458 -1.3200259,0.71547 -1.464901,1.180388 -1.2132981,0.494153 -0.4462697,1.301899 -0.5465754,2.002568 -0.1956114,0.653166 -0.8744884,1.254565 -0.8908612,1.953701 -0.7417413,0.582492 0.2846127,1.290772 0.458711,1.994317 0.2879671,0.275673 0.4379364,0.53087 0.5081433,1.014003 0.067094,0.461708 -0.3921574,0.838663 -0.3921574,1.107674 0,0.316738 0.1362876,0.715545 0.1486525,1.410333 0.144668,0.588391 -0.1992997,0.86452 -0.1705277,1.874653 -0.1977631,0.394906 0.2069238,2.536697 0.2886063,3.925229 0.1819551,1.132304 0.2206379,2.305207 0.3101566,3.401485 0.1706766,1.192448 0.1188557,2.238555 0.2320926,3.22409 0.047244,1.095763 0.823293,1.600499 0.9850653,2.384414 0.7506584,0.556181 -0.3773668,1.601335 -0.2866342,2.168414 0.079995,0.499972 0.9087983,1.037408 1.1719072,1.066642 0.2850643,0.03167 0.2827591,-0.03979 0.7954543,-0.04475 0.1905696,-0.08695 1.423892,0.318211 2.2769308,0.287789 0.7340579,0.32402 1.4117621,-0.04635 2.1763911,-0.08781 0.792948,-0.02795 1.579702,0.190503 2.40668,0.147012 0.817867,0.23658 1.701946,-0.140106 2.532692,-0.191649 0.811488,-0.08814 1.800415,-0.258544 2.536547,-0.273325 0.90067,-0.181906 0.828374,0.254806 1.361499,0.339741 0.603612,0.09616 1.91175,0.07092 2.341005,0.236022 0.41176,0.158369 0.581898,0.373444 0.740433,0.62196 0.05848,0.251415 0.117658,0.808809 0.09638,1.120194 -0.106375,0.512707 -0.57042,1.019732 -0.652094,1.271798 -0.555032,0.714931 0.180417,0.129119 0.112378,0.29878 0.106715,0.267282 -0.468444,1.024211 -0.694812,1.505734 -0.192992,0.422799 -0.255181,0.35096 -0.349393,0.696825 -0.03989,0.03571 -0.671089,1.861338 -0.563818,2.339455 0.07426,0.33099 0.485986,0.348137 0.74609,0.579339 0.285064,0.253391 0.576101,-0.01263 1.009906,0.224507 0.416548,-0.243699 1.80064,0.539087 2.442352,0.798232 1.080536,0.14233 0.65912,0.872295 1.031208,1.0069 0.521468,0.799689 0.681739,0.167086 1.293457,0.31152 0.307644,-0.02912 1.637306,-0.692371 2.520843,-0.58502 0.705968,-0.946726 2.103276,0.31296 2.844073,0.509898 1.066669,0.147909 0.77505,0.434503 1.117002,0.524031 0.554028,0.145054 1.727226,-0.316283 2.309126,-0.461758 0.506781,-0.126695 1.616202,-0.550385 2.302956,-0.774318 1.041194,-0.416066 1.580007,-0.35562 2.191498,-0.566976 1.143146,-0.218505 1.234669,-0.789938 1.960066,-1.049273 0.715331,-0.61316 1.284368,-0.785445 2.180903,-1.071561 0.495853,-0.478968 1.857752,-0.6334 2.849521,-0.848277 0.688498,-0.224098 1.189748,-0.236042 1.977103,-0.310727 0.246506,0.01437 2.411974,0.393536 3.135228,0.428017 0.542924,0.02588 0.341434,-1.100273 0.575092,-0.970464 0.285064,0.158369 0.691914,0.345551 1.009082,0.6424 0.418005,0.237825 0.686782,1.301413 1.030167,1.678828 0.300479,0.939036 0.23577,-0.527918 0.504817,-0.245847 0.299893,-0.484024 1.530002,1.266876 2.240954,1.92578 0.702122,0.334591 0.56584,0.700615 0.970372,1.023199 0.286877,0.390453 0.723584,1.334966 1.30728,1.612085 0.265833,0.857478 1.929243,0.250317 2.67576,0.174335 0.654434,-0.06661 0.545326,0.04196 1.174566,-0.101053 0.696824,-0.158369 1.677902,-0.348228 2.70825,-0.509025 1.090805,-0.197442 3.084072,-3.032455 4.074424,-4.236701 0.864625,0.988548 1.011985,1.917039 2.303122,1.689157 0.843914,-0.51821 2.70571,-0.258333 4.096957,-0.60502 1.076923,-0.04557 2.628971,-0.01188 3.714714,-0.508666 1.231867,0.197033 1.586849,-1.196929 1.733697,-2.418793 2.097811,0.692295 2.357178,-1.137283 2.522164,-2.265009 0.15659,-1.070332 0.673319,-2.168187 0.286993,-3.3866 -0.411759,-1.298626 -0.796131,-2.620494 -1.058763,-3.944659 -0.322121,-1.320176 -1.39375,-2.431714 -1.555584,-3.728572 -1.100907,-1.139208 0.23789,-1.871469 0.168113,-3.149762 0.425433,-0.674901 -0.107726,-2.433331 -0.213926,-3.801523 -0.05151,-0.71331 -0.498979,-1.968989 -0.691099,-3.053805 -0.449022,-0.521365 -0.319296,-1.862646 -0.57326,-2.680956 -0.162614,-0.590645 -0.447564,-1.055048 -0.775912,-1.502691 -0.360373,-0.491302 -1.409278,-1.068262 -1.963186,-1.123653 -0.633476,-0.06335 -1.540553,-0.5075 -2.031747,-0.84682 -0.741952,-0.49682 -1.611527,-0.613678 -1.910107,-1.015506 -1.220634,-0.464976 -0.921098,-0.89829 -1.110815,-1.489034 -0.554129,-0.654106 0.522428,-2.033855 0.536142,-2.896693 0.882479,-0.971968 -0.0279,-1.164988 0.01473,-1.691942 -0.0059,-0.704814 0.20445,-1.360266 0.342435,-1.897778 0.197563,-0.619621 1.022403,-1.327569 1.248663,-1.663382 0.237171,-0.352005 -0.10649,-0.242966 0.275707,-0.347202 0.348412,-0.09502 1.023857,-0.22581 1.465845,-0.456929 0.66436,-0.171367 1.146426,-0.524961 1.574442,-0.832106 0.763034,-0.368499 0.892853,-0.49584 1.313801,-0.895727 0.555843,-0.330376 1.377256,-0.972754 1.837848,-1.612532 0.767331,-0.485208 0.451169,-1.056959 0.742519,-1.755566 -0.02599,-0.560517 0.426885,-1.576747 0.621757,-2.445572 0.0053,-0.740493 0.180586,-1.279297 0.242706,-2.053726 0.06381,-0.795459 0.04576,-1.796458 -0.138132,-2.593337 -0.190043,-0.82352 -0.345666,-1.85925 -0.383369,-2.949685 -0.08393,-1.130305 0.005,-2.262635 0.09875,-3.499919 0.104204,-1.259934 0.512252,-2.61724 0.721549,-3.937215 0.46434,-1.338702 0.349067,-2.574854 0.627483,-3.827943 0.188361,-1.286891 0.63492,-2.656235 0.999371,-3.813257 0.368504,-1.226427 0.564416,-2.496707 0.969012,-3.375028 0.238943,-1.247524 1.370082,-1.98285 1.858956,-2.456301 0.516111,-0.499828 0.699076,-0.343634 1.19642,-0.476259 0.475107,-0.126695 0.145335,-0.386853 0.344999,-0.661905 -0.464847,-0.3098 -0.07614,-0.888093 -0.07734,-1.2392754 C 90.509391,9.2358518 90.596804,9.237893 90.532998,8.9955357 90.205209,8.5705343 90.137924,8.5064876 89.935382,8.1477098 89.530328,7.9289797 89.499668,6.974021 89.115776,6.5583873 88.898281,5.9017557 88.662305,5.8808544 88.182029,5.638472 87.98993,5.4147523 87.120264,5.0850953 86.401155,5.0464587 c -0.54497,-0.02928 -1.135917,0.9405944 -1.619717,1.0917818 -0.506781,0.1583691 -0.926852,0.4120763 -1.47631,0.4946549 -0.468517,0.2271438 -1.020393,0.1338844 -1.631985,0.1611488 -0.460225,0.025236 -1.125851,0.2067223 -1.764516,0.2067492 -0.481218,0.1737473 -1.271776,-0.058916 -1.886135,-0.065369 -0.578974,-0.051904 -0.986726,0.00431 -1.50597,0.026458 -0.452877,0.031656 -1.07702,0.1000702 -1.588528,0.1831336 C 74.46814,7.2538239 73.990456,6.1973273 73.578679,6.3465164 73.152318,6.5009895 72.779084,7.8632092 72.473583,8.13816 72.156845,8.4232244 71.840926,8.5945089 71.343937,8.8213534 70.921586,8.9759159 70.243393,9.2865607 69.57057,9.4604906 c -0.594939,0.1809279 -0.794426,0.6868014 -1.508667,0.7863574 -0.319681,0.507803 -2.076859,0.06714 -3.000974,0.05282 C 64.115352,10.19014 63.915665,10.203063 63.316373,10.143736 62.692533,10.018741 60.947492,9.9579968 60.29047,9.8191794 58.994614,9.7307345 59.639878,9.5324651 59.421074,9.430299 58.906774,9.1901572 58.648359,9.3118917 58.219395,8.9258249 57.902657,8.6407605 57.594766,8.5376788 57.175751,8.2728273 56.791527,8.162391 56.047196,7.7174181 55.509471,7.4633441 54.890864,7.2570232 54.276636,7.3069215 53.80212,7.1290143 53.016024,7.2060909 52.88353,6.5240529 52.426233,6.3785993 51.916523,5.9460615 51.384813,6.0646223 50.889291,5.979623 50.345319,5.8659122 50.278678,6.1207743 49.794542,6.1332138 c -0.11656,0.2871318 -1.44057,0.3339379 -2.025155,0.4127577 -0.440667,0.059415 -0.630957,0.4776742 -0.918141,0.6787027 -0.316738,0.2217167 -0.189221,1.3177361 -0.519106,1.7393105 0.182941,1.1010983 -0.737213,0.9231755 -1.023325,1.3407523 -0.509002,0.657182 -1.132735,1.377383 -1.460137,1.886877 -0.767181,0.846148 -0.734897,0.711349 -0.998111,1.132793 -0.571654,0.462284 -0.831007,1.703921 -1.175263,2.256638 -0.35687,0.917852 -0.983117,0.149723 -1.231297,0.454434 -0.845264,-0.17754 -1.426914,0.985655 -1.689042,1.327707 -0.211775,0.276346 0.533942,0.663641 0.181693,0.593191 -0.316738,-0.06335 -1.00484,0.581066 -1.509778,0.464714 -0.75849,0.620496 -1.235449,-0.274974 -1.846092,-0.463048 -0.76226,-0.188632 -0.994401,-0.387655 -1.633603,-0.628513 -0.523058,-0.273167 -1.41776,-0.766697 -2.176276,-1.114773 -0.579919,-0.480093 -0.811399,-0.657044 -1.44772,-0.996503 -0.17807,-0.404706 -1.678882,-0.690089 -2.348718,-1.107772 -0.696131,-0.212357 -0.940406,-0.606394 -1.249907,-0.960044 -0.344602,-0.393758 -0.549984,-1.135382 -0.6404,-1.527185 -0.09502,-0.41176 -0.24631,-0.76879 -0.484936,-1.110864 C 25.381693,10.180945 25.037072,9.8319479 24.688616,9.5486928 24.343484,9.2609036 24.299092,9.2619331 23.911029,9.0469579 23.738562,9.003565 22.829217,9.3798401 22.301641,9.1697734 21.735702,9.8132167 21.55561,8.4655458 21.115981,8.2048603 21.041172,7.7654617 20.095637,8.0303773 19.80246,7.8978047 c -0.618354,0.069768 -0.608619,0.060536 -0.677012,-0.050435 -0.06065,-0.098401 0.09158,-0.1749022 0.09158,-0.1749022 z"
       id="path423" />
    <path
       style="fill:#0094ff;fill-opacity:1;stroke:#343434;stroke-width:0.5;stroke-linecap:butt;stroke-dasharray:none;stroke-opacity:1;paint-order:markers fill stroke"
       d="m 31.121685,30.089346 c -0.200769,0.28344 -1.121249,0.270226 -1.33321,0.609952 -0.423856,0.104987 0.10698,0.900213 -0.126681,1.334939 0.347748,0.543236 -0.607684,0.670206 -0.842742,1.135231 -0.36428,0.232343 -0.571644,0.759872 -0.782257,1.226933 -0.329089,0.304773 -0.405323,0.90125 -0.579504,1.361598 -0.174352,0.42203 -0.157411,0.954259 -0.286985,1.379584 0.03196,0.492073 -0.419045,0.503046 -0.514,0.88104 -0.301438,0.172051 0.101748,1.055078 0.06913,1.498979 0.271507,0.436478 -0.04982,0.61648 -0.06649,0.884626 -0.01614,0.295097 0.134884,0.641163 0.166407,0.864581 0.03451,0.24463 -0.02387,0.36547 0.126716,0.51606 0.187647,0.187647 0.429627,0.338669 0.663967,0.445799 0.254069,0.106645 0.260529,-0.417974 0.51714,-0.391885 0.08912,-0.556435 0.446826,-0.326901 0.77832,-0.379926 0.104553,-0.394064 0.837775,-0.09842 1.131674,-0.195649 0.477627,-0.05567 0.432714,-0.138717 0.633968,-0.241412 0.317003,-0.137825 0.611885,-0.331179 0.882273,-0.573614 0.31991,-0.249808 0.618906,-0.559741 0.862412,-0.955038 0.291714,-0.360719 1.295318,-0.818421 1.461992,-1.3657 0.154506,-0.507323 -0.676164,-1.804051 -0.572182,-2.442793 0.531664,0.32721 1.08068,0.596553 1.511436,0.751721 0.469863,0.179138 0.787835,0.247159 1.101582,0.262653 0.363592,0.044 1.125895,0.172098 1.361377,0.06482 0.73997,0.100757 0.397464,-0.343832 0.518088,-0.554518 0.141853,-0.340013 0.21727,-0.64743 0.202107,-1.029745 -0.01335,-0.338575 -0.134892,-0.761335 -0.240625,-1.096874 -0.154257,-0.432525 -0.318971,-0.730706 -0.471631,-1.023124 -0.265332,-0.453613 -0.388586,-0.951762 -0.60171,-1.232667 -0.278645,-0.66116 -0.553071,-0.595298 -0.853691,-0.797395 -0.345408,-0.232207 -0.704332,-0.396305 -1.177573,-0.695176 -0.363747,0.831422 -0.847042,0.825148 -1.223454,1.072062 -0.427257,-0.280159 -0.09283,0.442844 -0.389895,0.401777 0.108321,0.111619 -0.800506,-0.258363 -1.224467,-0.599244 -0.203606,-0.158401 -0.421902,-0.411511 -0.655427,-0.649777 -0.200531,-0.204602 -0.04607,-0.46782 -0.04607,-0.46782 z"
       id="path10290" />
    <path
       style="display:inline;fill:#0094ff;fill-opacity:1;stroke:#343434;stroke-width:0.5;stroke-linecap:butt;stroke-dasharray:none;stroke-opacity:1;paint-order:markers fill stroke"
       d="m 55.750919,55.044222 c 0.281471,0.281471 -0.266804,0.08288 -0.121742,0.292364 0.03137,0.04549 0.935905,0.688446 1.148388,0.869289 0.579453,0.112152 -0.138855,-0.213623 -0.138855,-0.213623 0.03755,-0.06348 0.222415,0.112597 0.521273,0.161545 0.162471,-0.100155 0.72062,0.06984 1.397164,0.02588 0.565746,-0.03676 1.883943,0.749732 3.211468,-0.04517 -0.721696,-0.78294 -0.137481,-0.682586 0.239304,-0.845818 0.187643,-0.457451 1.007039,-0.232763 1.316101,-0.446294 0.560381,-0.06636 0.503733,-0.385657 0.711821,-0.607215 0.258304,-0.271225 0.627368,-0.48531 0.800033,-0.806684 0.340315,-0.252706 0.329846,-0.70242 0.407027,-1.093738 0.09461,-0.362821 0.127548,-0.7579 0.117261,-1.159293 0.01765,-0.380034 -0.27135,-1.363932 -0.348296,-1.76034 -0.07605,-0.391764 -0.141592,-0.548426 -0.254716,-0.937003 -0.135484,-0.465385 0.211289,-0.78785 0.389833,-1.038708 0.40582,-0.180282 0.342097,-0.321944 0.529839,-0.434894 0.24973,-0.124817 0.488561,-0.21869 0.62533,-0.305226 0.210727,-0.102391 0.237356,-0.195062 -0.183391,-0.385373 -0.301425,-0.13634 -0.0155,-0.301486 -0.835136,-0.554659 -0.879048,0.197041 -1.795992,-0.271805 -2.547767,-0.05288 -0.911355,-0.442665 -1.475464,0.521709 -2.144704,0.787012 -0.598945,0.298869 -1.239928,0.569179 -1.781074,0.855768 -0.504404,0.309797 -0.501628,0.780608 -0.92296,1.07712 0.02037,0.549181 -0.921926,0.615121 -1.289664,0.959723 -0.318717,0.215758 -0.576125,0.535308 -0.806524,0.822203 -0.222797,0.234249 -0.470962,0.408514 -0.626413,0.679898 -0.225803,0.143156 -0.39412,0.424823 -0.486999,0.707055 -0.198366,0.138517 -0.19137,0.221718 -0.212721,0.50538 -0.06794,-0.02412 -0.05752,0.62167 0.0028,0.976661 -0.01707,0.170019 0.08471,0.456443 0.161516,0.685707 0.0529,0.190764 0.05504,-0.07617 0.147864,0.106963 0.104792,0.206736 0.868375,1.050236 0.973986,1.174357 z"
       id="path10290-4" />
    <path
       style="fill:#0094ff;fill-opacity:1;stroke:#343434;stroke-width:0;stroke-linecap:butt;stroke-dasharray:none;stroke-opacity:1;paint-order:markers fill stroke"
       d="m 62.081383,51.411658 0.541694,2.790544 c 0,0 0.02708,0.534495 0.520459,0.456297 0.819982,-0.140585 1.48185,-0.831819 1.728391,-1.638175 0.230126,-0.724281 -0.377544,-2.347338 -0.377544,-2.347338 z"
       id="path11270" />
    <path
       style="fill:#0094ff;fill-opacity:0;stroke:#0094ff;stroke-width:0.2;stroke-linecap:butt;stroke-dasharray:none;stroke-opacity:1;paint-order:markers fill stroke"
       d="m 58.769686,55.744448 c 0,0 2.980748,0.400399 4.938255,0.756309 1.957506,0.355909 3.64808,1.512617 3.9595,3.114214 0.311422,1.601597 -0.4004,2.669329 -1.112219,4.893768 -0.711821,2.224439 3.648081,4.04848 4.671322,4.804788 1.023242,0.756309 -0.177956,1.557108 -0.177956,2.046484 0,0.489376 2.141356,1.628449 1.86853,2.669328 -0.325504,1.241856 2.59969,1.641781 1.829148,3.337658 -0.66387,1.461104 1.73571,2.636962 2.349633,2.636962 1.227847,0 1.615589,0.19387 2.584942,1.809458 0.969354,1.615591 0.129247,3.295804 1.227847,4.265155 1.0986,0.969354 4.652896,5.169886 2.972685,7.043969"
       id="path12101" />
    <path
       style="fill:#0094ff;fill-opacity:0;stroke:#0094ff;stroke-width:0.2;stroke-linecap:butt;stroke-dasharray:none;stroke-opacity:1;paint-order:markers fill stroke"
       d="m 76.582409,79.882324 c 0,0 0.771986,1.995718 0.448866,3.223565 -0.323117,1.227849 -2.778813,0.581612 -2.520318,2.132578 0.258496,1.550967 -0.193871,1.938705 -0.969354,2.391072 -0.775483,0.452366 -2.391071,1.680212 -2.067954,2.843437 0.32312,1.163222 -0.775285,2.670121 1.98e-4,4.027217 0.775481,1.357093 2.778615,0.561055 2.778615,0.561055"
       id="path12157" />
  </g>
</svg>
