<?xml version="1.0" encoding="UTF-8" standalone="no"?>
<!-- Created with Inkscape (http://www.inkscape.org/) -->

<svg
   viewBox="0 0 100 100"
   version="1.1"
   id="svg5"
   xmlns="http://www.w3.org/2000/svg">
  <g
     id="layer5">
    <g
       id="g4287"
       transform="translate(-3.1749999)">
      <rect
         style="fill:#afafaf;fill-opacity:1;stroke:#595959;stroke-width:0.999998;stroke-linecap:butt;stroke-dasharray:none;stroke-opacity:1;paint-order:markers fill stroke"
         id="rect2983-0-1-5"
         width="29.000002"
         height="72.699265"
         x="20.351286"
         y="16.624655" />
      <path
         id="rect2983-2-7"
         style="fill:#afafaf;stroke:#595959;paint-order:markers fill stroke"
         d="m 17.140272,6.7854621 v 5.2146689 0.0088 5.214669 H 52.5624 V 12.000146 6.7854771 H 44.998003 V 12.000146 H 38.633017 V 6.7854771 H 31.069138 V 12.000146 H 24.704152 V 6.7854771 Z" />
      <rect
         style="fill:#666666;fill-opacity:1;stroke:#2e2e2e;stroke-width:0;stroke-linecap:butt;stroke-dasharray:none;stroke-opacity:1;paint-order:markers fill stroke"
         id="rect4311"
         width="7.000001"
         height="7"
         x="28.780302"
         y="25.341" />
      <rect
         style="fill:#666666;fill-opacity:1;stroke:#2e2e2e;stroke-width:0;stroke-linecap:butt;stroke-dasharray:none;stroke-opacity:1;paint-order:markers fill stroke"
         id="rect4311-4"
         width="7.000001"
         height="7"
         x="29.081474"
         y="51.585346" />
      <rect
         style="fill:#666666;fill-opacity:1;stroke:#2e2e2e;stroke-width:0;stroke-linecap:butt;stroke-dasharray:none;stroke-opacity:1;paint-order:markers fill stroke"
         id="rect4311-42"
         width="7.000001"
         height="7"
         x="38.674908"
         y="39.036926" />
    </g>
    <g
       id="g4204"
       transform="translate(9.1438775,21.581188)">
      <path
         style="fill:#999999;fill-opacity:1;stroke:#595959;stroke-width:1;stroke-linecap:butt;stroke-dasharray:none;stroke-opacity:1;paint-order:markers fill stroke"
         d="M 2.6458333,44.32417 14.45513,31.7709 26.515914,43.983619 26.749062,62.483465 2.8161084,62.31319 Z"
         id="path4003" />
      <path
         id="rect3900"
         style="fill:#cccccc;stroke:#595959;stroke-width:1;paint-order:markers fill stroke"
         d="M -2.6903405,43.831503 -0.0524638,46.46938 14.455312,31.961604 28.963089,46.469381 31.600601,43.831869 17.092824,29.324092 14.454948,26.686215 11.817435,29.323728 Z" />
      <rect
         style="fill:#4d4d4d;fill-opacity:1;stroke:#595959;stroke-width:0;stroke-linecap:butt;stroke-dasharray:none;stroke-opacity:1;paint-order:markers fill stroke"
         id="rect4101"
         width="5.6198196"
         height="9.731883"
         x="17.133596"
         y="54.888149" />
      <path
         style="fill:#e6e6e6;fill-opacity:1;stroke:#595959;stroke-width:1;stroke-linecap:butt;stroke-dasharray:none;stroke-opacity:1;paint-order:markers fill stroke"
         id="rect2983-2-1-2-3-9"
         width="5.067039"
         height="5.6206565"
         x="7.7466383"
         y="44.356953"
         d="m 7.7466383,44.356953 h 5.0670387 v 5.620656 H 7.7466383 Z" />
      <path
         style="fill:#e6e6e6;fill-opacity:1;stroke:#595959;stroke-width:1;stroke-linecap:butt;stroke-dasharray:none;stroke-opacity:1;paint-order:markers fill stroke"
         id="rect2983-2-1-2-3-9-0"
         width="5.067039"
         height="5.6206565"
         x="15.970765"
         y="44.356953"
         d="m 15.970765,44.356953 h 5.067039 v 5.620656 h -5.067039 z" />
    </g>
    <g
       id="g3517"
       transform="matrix(1.1540144,0,0,1.1193946,8.7958656,16.81291)"
       style="stroke-width:0.879838">
      <path
         style="fill:#afafaf;fill-opacity:1;stroke:#595959;stroke-width:0.821923;stroke-linecap:butt;stroke-dasharray:none;stroke-opacity:1;paint-order:markers fill stroke"
         id="rect2983-2-1-2"
         width="5.4157505"
         height="5.2234859"
         x="46.963562"
         y="26.463219"
         d="m 46.963562,26.463219 h 5.415751 v 5.223486 h -5.415751 z" />
      <rect
         style="fill:#cccccc;fill-opacity:1;stroke:#595959;stroke-width:0.879838;stroke-linecap:butt;stroke-dasharray:none;stroke-opacity:1;paint-order:markers fill stroke"
         id="rect3461"
         width="26.554232"
         height="23.560163"
         x="44.733665"
         y="37.75013" />
      <path
         style="fill:#e6e6e6;fill-opacity:1;stroke:#595959;stroke-width:0.821923;stroke-linecap:butt;stroke-dasharray:none;stroke-opacity:1;paint-order:markers fill stroke"
         id="rect2983-2-1-2-3"
         width="5.4157505"
         height="5.2234859"
         x="52.564541"
         y="43.855354"
         d="m 52.564541,43.855354 h 5.41575 v 5.223486 h -5.41575 z" />
      <path
         style="fill:#e6e6e6;fill-opacity:1;stroke:#595959;stroke-width:0.821923;stroke-linecap:butt;stroke-dasharray:none;stroke-opacity:1;paint-order:markers fill stroke"
         id="rect2983-2-1-2-3-3"
         width="5.4157505"
         height="5.2234859"
         x="60.086781"
         y="43.855354"
         d="m 60.086781,43.855354 h 5.41575 v 5.223486 h -5.41575 z" />
      <path
         id="rect3461-1"
         style="fill:#808080;stroke:#595959;stroke-width:0.879838;paint-order:markers fill stroke"
         d="m 44.733665,30.230972 h 26.554232 l 2.116667,10.213167 H 42.616998 Z" />
    </g>
    <path
       style="fill:#afafaf;fill-opacity:1;stroke:#595959;stroke-width:0.803456;stroke-linecap:butt;stroke-dasharray:none;stroke-opacity:1;paint-order:markers fill stroke"
       id="rect2983-0-6"
       width="28.062428"
       height="9.7659826"
       x="10.513448"
       y="87.608238"
       class="UnoptimicedTransforms"
       d="m 10.513448,87.608238 h 28.062427 v 9.765983 H 10.513448 Z m 78.973104,0 H 61.424125 v 9.765983 h 28.062427 z"
       transform="matrix(1,0,0,1.5490883,0,-53.467048)" />
    <path
       style="fill:#afafaf;fill-opacity:1;stroke:#595959;stroke-width:0.784781;stroke-linecap:butt;stroke-dasharray:none;stroke-opacity:1;paint-order:markers fill stroke"
       id="rect2983-0"
       width="8.7058105"
       height="14.205241"
       x="4.0046725"
       y="83.168976"
       class="UnoptimicedTransforms"
       d="M 4.0046725,83.168976 H 12.710483 V 97.374217 H 4.0046725 Z m 91.9906545,0 h -8.70581 v 14.205241 h 8.70581 z"
       transform="matrix(1,0,0,1.623685,0,-60.730839)" />
    <rect
       style="fill:#afafaf;fill-opacity:1;stroke:#595959;stroke-width:0.999998;stroke-linecap:butt;stroke-dasharray:none;stroke-opacity:1;paint-order:markers fill stroke"
       id="rect2983-0-1"
       width="29.000002"
       height="27.438452"
       x="35.5"
       y="69.935776" />
    <path
       style="fill:#afafaf;fill-opacity:1;stroke:#595959;stroke-width:0.9391;stroke-linecap:butt;stroke-dasharray:none;stroke-opacity:1;paint-order:markers fill stroke"
       id="rect2983"
       width="11.839902"
       height="5.2234859"
       x="2.4376268"
       y="79.048759"
       class="UnoptimicedTransforms"
       d="M 2.4376268,79.048759 H 14.277529 v 5.223486 H 2.4376268 Z m 95.1247462,0 H 85.722471 v 5.223486 h 11.839902 z"
       transform="matrix(1,0,0,1.1339033,0,-20.280162)" />
    <path
       style="fill:#333333;fill-opacity:1;stroke:#595959;stroke-width:0;stroke-linecap:butt;stroke-dasharray:none;stroke-opacity:1;paint-order:markers fill stroke"
       d="m 43.181515,97.87423 c 0,0 -1.933218,-19.415594 6.818484,-19.415594 8.751704,0 6.818486,19.415594 6.818486,19.415594 z"
       id="path3105" />
    <g
       id="g5218">
      <path
         id="rect5105"
         style="fill:#999999;stroke:#2e2e2e;stroke-width:0;paint-order:markers fill stroke"
         d="m -34.187298,5.4703076 c 0,0 4.46505,1.5874996 6.306178,1.5874996 1.841128,0 3.160393,-1.5874996 4.740589,-1.5874996 1.580196,0 4.740589,1.5874996 4.740589,1.5874996 V 18.40497 c 0,0 -3.160393,-1.5875 -4.740589,-1.5875 -1.580196,0 -2.899461,1.5875 -4.740589,1.5875 -1.841128,0 -6.306178,-1.5875 -6.306178,-1.5875 z"
         transform="translate(84.173285,34.922129)" />
      <path
         style="fill:#666666;fill-opacity:1;stroke:#2e2e2e;stroke-width:1;stroke-linecap:butt;stroke-dasharray:none;stroke-opacity:1;paint-order:markers fill stroke"
         d="m -34.232081,5.2911967 0.176407,20.5715263"
         id="path5161"
         transform="translate(84.173285,34.922129)" />
    </g>
    <path
       id="rect2983-2"
       style="fill:#afafaf;stroke:#595959;paint-order:markers fill stroke"
       d="m 32.288985,60.096585 v 5.214669 0.0088 5.214669 H 67.711112 V 65.311269 60.0966 h -7.564396 v 5.214669 H 53.78173 V 60.0966 h -7.563879 v 5.214669 H 39.852865 V 60.0966 Z" />
  </g>
</svg>
