<svg
   viewBox="0 0 100 100"
   version="1.1"
   xmlns="http://www.w3.org/2000/svg"
   xmlns:xlink="http://www.w3.org/1999/xlink"
>
   <path fill="#333" d="M 20.154321,17.5 H 79.845679 C 86.856173,17.5 92.5,23.143827 92.5,30.154321 V 79.845679 C 92.5,86.856173 86.856173,92.5 79.845679,92.5 H 20.154321 C 13.143827,92.5 7.5,86.856173 7.5,79.845679 V 30.154321 C 7.5,23.143827 13.143827,17.5 20.154321,17.5 Z" />
   <path fill="#fff" d="M 25.000024,3.7284546 A 3.5,3.5 0 0 0 21.49998,7.2284993 v 6.7716797 h -1.345655 c -8.888927,0 -16.1545691,7.265126 -16.1545691,16.154053 v 49.69154 c 0,8.888927 7.2656421,16.154053 16.1545691,16.154053 h 59.691447 c 8.888927,0 16.154053,-7.265126 16.154053,-16.154053 v -49.69154 c 0,-8.888927 -7.265126,-16.154053 -16.154053,-16.154053 H 78.500118 V 7.2284993 A 3.5,3.5 0 0 0 75.000073,3.7284546 3.5,3.5 0 0 0 71.500028,7.2284993 V 14.000179 H 28.500069 V 7.2284993 A 3.5,3.5 0 0 0 25.000024,3.7284546 Z M 20.154325,20.999752 h 59.691447 c 5.132019,0 9.15448,4.022461 9.15448,9.15448 v 49.69154 c 0,5.132019 -4.022461,9.15448 -9.15448,9.15448 H 20.154325 c -5.132019,0 -9.15448,-4.022461 -9.15448,-9.15448 v -49.69154 c 0,-5.132019 4.022461,-9.15448 9.15448,-9.15448 z" />
   <path fill="#fff" d="M 21.917645,65.980529 H 37.917644 V 79.980528 H 21.917645 Z" />
   <path fill="#fff" d="M 44.928372,65.980529 H 60.928371 V 79.980528 H 44.928372 Z" />
   <path fill="#fff" d="M 20.751821,44.995713 H 36.75182 V 58.995712 H 20.751821 Z" />
   <path fill="#fff" d="M 43.762548,44.995713 H 59.762547 V 58.995712 H 43.762548 Z" />
   <path fill="#fff" d="M 66.773275,44.995713 H 82.773272 V 58.995712 H 66.773275 Z" />
   <path fill="#fff" d="M 18.949168,26.02385 H 34.949167 V 40.023849 H 18.949168 Z" />
   <path fill="#fff" d="M 41.959895,26.02385 H 57.959894 V 40.023849 H 41.959895 Z" />
   <path fill="#fff" d="M 64.970622,26.02385 H 80.970621 V 40.023849 H 64.970622 Z" />
</svg>
