<svg
   viewBox="0 0 100 100"
   version="1.1"
   xmlns="http://www.w3.org/2000/svg"
   xmlns:xlink="http://www.w3.org/1999/xlink"
>
  <g>
    <path
       fill="#fff"       
       d="m 26.103833,7.2662231 c 0,0 2.395079,10.7466579 7.994344,16.6279259 1.639889,1.72248 2.903547,3.365897 3.487642,4.963521 0.423011,0.22045 0.866489,0.444951 1.332219,0.669727 3.273243,1.579769 7.474923,3.038962 10.673767,2.958992 3.9292,-0.09823 8.92339,-1.46979 12.552205,-2.655135 0.350618,-1.902938 1.782536,-3.862786 3.757394,-5.937105 C 71.500669,18.012881 73.896265,7.2662231 73.896265,7.2662231 70.221467,8.78754 58.521954,13.212923 50.000049,13.212923 41.478144,13.212923 29.77863,8.78754 26.103833,7.2662231 Z M 36.633423,33.974154 C 34.930598,36.003903 31.440191,38.015647 25.420671,40.084892 9.8671545,45.431498 6.5381459,67.736487 7.1602864,79.499023 7.7790144,91.197037 21.885565,96.569618 50.000049,96.62821 78.114533,96.569618 92.221083,91.197037 92.839812,79.499023 93.461952,67.736487 90.132944,45.431498 74.579427,40.084892 c -5.418483,-1.862635 -8.789425,-3.679016 -10.651546,-5.50354 -3.750787,1.268673 -9.195341,2.777789 -14.211019,2.903182 -4.679317,0.116982 -9.344704,-1.705027 -12.970785,-3.455087 -0.03823,-0.01845 -0.07465,-0.03683 -0.112654,-0.05529 z" />
    <path
      fill="#000"
       d="m 52.966271,44.302725 -4.38474,0.365352 1.15548,13.871505 -6.70036,0.728121 0.47645,4.374927 6.58927,-0.716236 0.63923,7.669816 -6.51949,0.708484 0.4749,4.374927 6.40995,-0.697115 1.02526,12.306742 4.38474,-0.365352 -1.03456,-12.41733 7.36699,-0.801501 -0.4749,-4.37286 -7.25744,0.788582 -0.63872,-7.669816 7.18716,-0.780831 -0.47439,-4.375443 -7.07864,0.769462 z" />
  </g>
</svg>
