<svg
   viewBox="0 0 100 100"
   version="1.1"
   xmlns="http://www.w3.org/2000/svg"
   xmlns:xlink="http://www.w3.org/1999/xlink"
>
    <path fill="#fff" d="m 9.9464141,8.1946993 1.2454709,14.2493057 48.394151,50.481561 -13.541143,11.702093 4.220869,4.14145 13.691564,-12.333482 c 0,0 1.59339,3.527958 3.320031,5.447755 1.726644,1.919801 7.140788,5.980244 7.140788,5.980244 0,0 0.487974,1.950331 2.707943,4.418641 3.682164,3.480758 6.557683,3.164086 9.140881,0.770782 2.567302,-2.226191 2.687696,-6.273545 0.199222,-9.171154 -2.219969,-2.468312 -4.107833,-3.159598 -4.107833,-3.159598 0,0 -3.465742,-5.812813 -5.192386,-7.732613 C 75.439331,71.069887 72.09945,69.112702 72.09945,69.112702 L 85.810363,56.800735 82.138005,52.16596 69.070839,64.395052 23.984402,10.938573 Z" />
</svg>