<svg
   viewBox="0 0 100 100"
   version="1.1"
   xmlns="http://www.w3.org/2000/svg"
   xmlns:xlink="http://www.w3.org/1999/xlink"
>
   <path
      fill="#fff"
      d="m 50.000049,5.3562622 c 0,0 -26.669249,10.9585038 -43.044918,10.9585038 C 6.7238063,78.825798 47.75625,95.102761 50.000049,97.363049 52.243848,95.102761 93.275775,78.825798 93.04445,16.314766 76.668781,16.314766 50.000049,5.3562622 50.000049,5.3562622 Z m 0,6.8838178 c 0,0 22.678148,9.318811 36.60345,9.318811 0.196707,53.157215 -34.695401,66.99827 -36.60345,68.920341 C 48.092,88.557161 13.199371,74.716106 13.396082,21.558891 c 13.925301,0 36.603967,-9.318811 36.603967,-9.318811 z"
   />
   <path
      fill="#fff"
      d="m 49.999791,18.593956 c 0,0 18.994857,7.805014 30.65837,7.805014 0.164756,44.523252 -29.060233,56.116502 -30.65837,57.726386 m 0,-65.5314 c 0,0 -18.994864,7.805014 -30.65837,7.805014 -0.164763,44.523252 29.060234,56.116502 30.65837,57.726386"
   />
</svg>
