<svg
   viewBox="0 0 100 100"
   version="1.1"
   xmlns="http://www.w3.org/2000/svg"
   xmlns:xlink="http://www.w3.org/1999/xlink"
>
  <g
     id="exp" >
    <path
      fill="#fff"
       transform="rotate(7.3009711,-218.64418,-199.38038)"
       d="m 99.291634,-35.238392 7.703476,15.608952 17.2255,2.503012 -12.46449,12.149874 2.94247,17.155898 -15.406956,-8.0999163 -15.406957,8.0999163 2.942467,-17.155898 -12.464489,-12.149875 17.2255,-2.503011 z" />
    <path
      fill="#fff"
       transform="rotate(-15.893578,349.48642,282.99767)"
       d="m 99.291634,-35.238392 7.703476,15.608952 17.2255,2.503012 -12.46449,12.149874 2.94247,17.155898 -15.406956,-8.0999163 -15.406957,8.0999163 2.942467,-17.155898 -12.464489,-12.149875 17.2255,-2.503011 z" />
    <path
      fill="#fff"
       transform="matrix(0.62553389,0.16513205,-0.16513205,0.62553389,-37.431823,18.055335)"
       d="m 99.291634,-35.238392 7.703476,15.608952 17.2255,2.503012 -12.46449,12.149874 2.94247,17.155898 -15.406956,-8.0999163 -15.406957,8.0999163 2.942467,-17.155898 -12.464489,-12.149875 17.2255,-2.503011 z" />
    <path
      fill="#fff"
       transform="matrix(0.63741456,-0.11074259,0.11074259,0.63741456,15.259854,95.016316)"
       d="m 99.291634,-35.238392 7.703476,15.608952 17.2255,2.503012 -12.46449,12.149874 2.94247,17.155898 -15.406956,-8.0999163 -15.406957,8.0999163 2.942467,-17.155898 -12.464489,-12.149875 17.2255,-2.503011 z" />
  </g>
</svg>
