<svg
   viewBox="0 0 100 100"
   version="1.1"
   id="svg2473"
   xmlns="http://www.w3.org/2000/svg"
>
  <g>
    <path
       fill="#333"
       d="m 42.953125,15.986328 c -3.747796,0 -7.494141,3.458984 -7.494141,3.458984 0,0 -0.793106,13.271006 5.949219,13.060547 5.227037,-0.163169 6.954867,-5.274088 7.525391,-8.746093 0.570523,3.472005 2.298354,8.582924 7.52539,8.746093 6.742325,0.210459 5.949219,-13.060546 5.949219,-13.060547 0,0 -3.748298,-3.458984 -7.496094,-3.458984 -3.012466,0 -5.225636,2.978991 -5.978515,4.148438 -0.752879,-1.169447 -2.968003,-4.148438 -5.980469,-4.148438 z"
       transform="matrix(1.0708804,0,0,1.0708804,-2.4018249,-1.1330667)"
       id="path3098" />
    <path
       fill="#333"
       d="m 95.946687,22.220359 c 0,0 -3.449311,-3.704717 -6.898627,-3.704717 -3.44931,0 -5.306634,4.939618 -5.306634,4.939618 0,0 5.750445,10.326945 5.14799,15.459872 7.952422,-7.129065 7.057271,-16.694773 7.057271,-16.694773 z"
       transform="translate(1.0583333,2.1166667)"
       id="path3434" />
    <path
       fill="#333"
       d="m 1.9366461,22.220359 c 0,0 3.4493117,-3.704717 6.8986268,-3.704717 3.4493101,0 5.3066341,4.939618 5.3066341,4.939618 0,0 -5.7504448,10.326945 -5.1479894,15.459872 C 1.0414956,31.786067 1.9366461,22.220359 1.9366461,22.220359 Z"
       transform="translate(1.0583333,2.1166667)"
       id="path3098-7" />
    <path
       fill="#333"
       d="m 74.379746,19.796471 c 0,0 -3.164148,-2.706649 -6.613462,-2.706649 -3.449314,0 -5.591797,3.371224 -5.591797,3.371224 0,0 4.894955,9.186296 5.575733,14.604387 8.66533,-7.699391 6.629526,-15.268962 6.629526,-15.268962 z"
       id="path3448" />
    <path
       fill="#333"
       d="m 25.620254,19.796471 c 0,0 3.164148,-2.706649 6.613462,-2.706649 3.449314,0 5.591797,3.371224 5.591797,3.371224 0,0 -4.894955,9.186296 -5.575733,14.604387 -8.66533,-7.699391 -6.629526,-15.268962 -6.629526,-15.268962 z"
       id="path3098-7-2" />
    <path
       fill="#333"
       d="m 42.953125,15.986328 c -3.747796,0 -7.494141,3.458984 -7.494141,3.458984 0,0 -0.793106,13.271006 5.949219,13.060547 5.91623,-0.184683 7.348913,-6.708356 7.695313,-10.019531 0.346399,3.311175 1.781035,9.834848 7.697265,10.019531 C 63.543106,32.716318 62.75,19.445313 62.75,19.445312 c 0,10e-7 -3.748298,-3.458984 -7.496094,-3.458984 -3.290681,0 -5.628995,3.554415 -6.15039,4.421875 -0.521396,-0.86746 -2.85971,-4.421875 -6.150391,-4.421875 z"
       transform="matrix(0.95289521,0,0,-0.93510369,3.2089503,97.124471)"
       id="path3098-3" />
    <path
       fill="#333"
       d="m 118.13514,19.445114 c 0,0 -2.75951,-3.459506 -6.50731,-3.459506 -3.74779,0 -5.27169,4.61267 -5.27169,4.61267 0,0 -1.1209,10.176628 6.8176,10.42444 6.74233,0.210459 4.9614,-11.577604 4.9614,-11.577604 z"
       transform="matrix(0.83841231,0,0,-0.9030789,-14.801617,94.81605)"
       id="path3456" />
    <path
       fill="#333"
       d="m 36.446602,19.445114 c 0,0 2.759509,-3.459506 6.507305,-3.459506 3.747793,0 5.271697,4.61267 5.271697,4.61267 0,0 1.1209,10.176628 -6.817605,10.42444 -6.742325,0.210459 -4.961397,-11.577604 -4.961397,-11.577604 z"
       transform="matrix(0.83841231,0,0,-0.9030789,-14.801617,94.81605)"
       id="path3098-3-8" />
    <path
       fill="#333"
       d="m 76.497016,19.796471 c 0,0 -3.164148,-2.706649 -6.613462,-2.706649 -3.449314,0 -5.591797,3.371224 -5.591797,3.371224 0,0 4.894955,13.419629 5.575733,18.83772 8.66533,-7.699391 6.629526,-19.502295 6.629526,-19.502295 z"
       transform="matrix(0.95637738,0,0,-1,1.1686763,98.161975)"
       id="path3460" />
    <path
       fill="#333"
       d="m 25.620254,19.796471 c 0,0 3.164148,-2.706649 6.613462,-2.706649 3.449314,0 5.591797,3.371224 5.591797,3.371224 0,0 -4.894955,13.419629 -5.575733,18.83772 -8.66533,-7.699391 -6.629526,-19.502295 -6.629526,-19.502295 z"
       transform="matrix(0.95637738,0,0,-1,1.1686763,98.161975)"
       id="path3098-7-2-8" />
    <path
       fill="#333"
       d="m 73.649662,20.094505 c 0,0 -0.308738,-2.778536 5.557072,-2.778536 5.865798,0 8.026881,3.704716 8.026881,3.704716 0,0 -0.290563,10.764145 -3.704714,18.523569 -3.395991,7.718149 -10.496689,15.745029 -10.496689,15.745029 5.505298,-17.090351 0.61745,-35.194778 0.61745,-35.194778 z"
       transform="translate(0,1.0583333)"
       id="path3438" />
    <path
       fill="#333"
       d="m 26.350338,20.094505 c 0,0 0.308738,-2.778536 -5.557072,-2.778536 -5.865798,0 -8.026881,3.704716 -8.026881,3.704716 0,0 0.290563,10.764145 3.704714,18.523569 3.395991,7.718149 10.496689,15.745029 10.496689,15.745029 -5.505298,-17.090351 -0.61745,-35.194778 -0.61745,-35.194778 z"
       transform="translate(0,1.0583333)"
       id="path3124" />
  </g>
</svg>
