<?xml version="1.0" encoding="UTF-8" standalone="no"?>
<!-- Created with Inkscape (http://www.inkscape.org/) -->

<svg
   viewBox="0 0 100 100"
   version="1.1"
   xmlns="http://www.w3.org/2000/svg">
  <g
     id="layer1">
    <path
      fill="#eee"
      d="m 49.310346,4.5438462 h 1.379309 C 52.523586,4.5438462 54,5.8802966 54,7.5403727 V 43.755043 c 0,1.660077 -1.476414,2.996528 -3.310345,2.996528 h -1.379309 c -1.833931,0 -3.310345,-1.336451 -3.310345,-2.996528 V 7.5403727 c 0,-1.6600761 1.476414,-2.9965265 3.310345,-2.9965265 z" />
    <path
      fill="#9f5814"
      d="m 50,38.90625 c -8.645753,0 -8.905377,6.051256 -8.617188,10.085938 0.288193,4.034683 4.035579,14.698634 2.882813,21.615234 -1.152766,6.9166 -0.60584,19.30838 5.734375,19.884766 6.340215,-0.576386 6.887141,-12.968166 5.734375,-19.884766 -1.152766,-6.9166 2.59462,-17.580551 2.882813,-21.615234 C 58.905377,44.957507 58.645753,38.90625 50,38.90625 Z"
      id="path236"
      class="UnoptimicedTransforms"
      transform="matrix(1,0,0,-1,0,134.16094)" />
    <circle
       style="fill:#474747;fill-opacity:1;fill-rule:evenodd;stroke-width:0.264583"
       id="path1948"
       cx="50"
       cy="57.38829"
       r="2" />
    <circle
       style="fill:#474747;fill-opacity:1;fill-rule:evenodd;stroke-width:0.264583"
       id="path1948-5"
       cx="50"
       cy="79.334801"
       r="2" />
  </g>
</svg>
