<svg
   viewBox="0 0 100 100"
   version="1.1"
   xmlns="http://www.w3.org/2000/svg"
>
  <defs
     id="defs2" />
  <g
     id="layer1">
    <path
       style="fill:#c5985e;fill-opacity:0;stroke:#333333;stroke-width:1.5;stroke-linecap:round;stroke-dasharray:none;stroke-opacity:1;paint-order:markers fill stroke"
       d="m 70.453249,56.275378 c 0,0 18.482133,-4.896974 15.638727,1.579671 -2.843406,6.476643 -10.899719,5.686809 -8.214281,9.635982 2.685439,3.949174 7.740381,5.528842 7.740381,5.528842"
       id="path2192" />
    <path
       style="fill:#c5985e;fill-opacity:1;stroke:#333333;stroke-width:0;stroke-linecap:round;stroke-dasharray:none;stroke-opacity:1;paint-order:markers fill stroke"
       d="m 22.115368,67.110329 c 0,0 1.714408,-4.713392 6.095667,-4.713392 4.381257,0 6.857621,4.909783 6.857621,4.909783 0,0 -3.047833,2.356697 -7.04811,2.356697 -4.000281,0 -5.905178,-2.553088 -5.905178,-2.553088 z m 55.769264,0 c 0,0 -1.714408,-4.713392 -6.095667,-4.713392 -4.381257,0 -6.857621,4.909783 -6.857621,4.909783 0,0 3.047833,2.356697 7.04811,2.356697 4.000281,0 5.905178,-2.553088 5.905178,-2.553088 z"
       id="path2162"
       transform="translate(0,6.3499996)" />
    <path
       style="fill:#a6773b;fill-opacity:1;fill-rule:evenodd;stroke-width:0.264583"
       d="m 59.935381,28.735373 c 0,6.412625 5.255585,11.611084 11.738678,11.611084 6.483093,0 11.738678,-5.198459 11.738678,-11.611084 0,-6.412624 -5.255585,-11.611084 -11.738678,-11.611084 -6.483093,0 -11.738678,5.19846 -11.738678,11.611084 z"
       id="path1918" />
    <path
       style="fill:#a6773b;fill-opacity:1;fill-rule:evenodd;stroke-width:0.264583"
       d="m 40.064619,28.735373 c 0,6.412625 -5.255585,11.611084 -11.738678,11.611084 -6.483093,0 -11.738678,-5.198459 -11.738678,-11.611084 0,-6.412624 5.255585,-11.611084 11.738678,-11.611084 6.483093,0 11.738678,5.19846 11.738678,11.611084 z"
       id="path408" />
    <path
       style="fill:#c5985e;fill-opacity:1;fill-rule:evenodd;stroke-width:0.264583"
       d="m 62.16725,29.380934 c 0,4.633859 3.797765,8.390344 8.482545,8.390344 4.684781,0 8.482546,-3.756485 8.482546,-8.390344 0,-4.63386 -3.797765,-8.390345 -8.482546,-8.390345 -4.68478,0 -8.482545,3.756485 -8.482545,8.390345 z"
       id="path2084" />
    <path
       style="fill:#c5985e;fill-opacity:1;fill-rule:evenodd;stroke-width:0.264583"
       d="m 37.83275,29.380934 c 0,4.633859 -3.797765,8.390344 -8.482545,8.390344 -4.684781,0 -8.482546,-3.756485 -8.482546,-8.390344 0,-4.63386 3.797765,-8.390345 8.482546,-8.390345 4.68478,0 8.482545,3.756485 8.482545,8.390345 z"
       id="path408-9" />
    <path
       style="fill:#8e632c;fill-opacity:1;stroke:#919191;stroke-width:0;stroke-linecap:round;paint-order:markers fill stroke"
       d="M 50,16.841797 C 32.902359,15.821042 19.90398,48.231414 24.242188,60.480469 26.925615,68.057204 40.723941,70.856017 50,71.181641 59.276059,70.856017 73.074385,68.057204 75.757812,60.480469 80.096021,48.231414 67.097641,15.821042 50,16.841797 Z"
       id="path256"
       transform="translate(0,7.9374996)" />
    <path
       id="path520"
       style="fill:#ae7122;fill-opacity:1;fill-rule:evenodd;stroke-width:0.264583"
       d="m 55,47.274194 c 0,2.542521 -2.238575,4.603641 -4.999999,4.603641 C 47.238577,51.877835 45,49.816715 45,47.274194 c 1.562691,-4.01986 9.923073,-2.250128 10,0 z" />
    <circle
       style="fill:#333333;fill-rule:evenodd;stroke-width:0.264582"
       id="path1491"
       cx="39.645836"
       cy="40.9375"
       r="3" />
    <circle
       style="fill:#333333;fill-rule:evenodd;stroke-width:0.264582"
       id="path1491-0"
       cx="60.354164"
       cy="40.9375"
       r="3" />
    <rect
       style="fill:#cccccc;fill-opacity:1;stroke:#919191;stroke-width:0;stroke-linecap:round;paint-order:markers fill stroke"
       id="rect1587"
       width="2.999999"
       height="3.999999"
       x="46.470833"
       y="55.906235" />
    <rect
       style="fill:#cccccc;fill-opacity:1;stroke:#919191;stroke-width:0;stroke-linecap:round;paint-order:markers fill stroke"
       id="rect1587-0"
       width="2.999999"
       height="3.999999"
       x="50.529167"
       y="55.906235" />
    <g
       id="path1678"
       transform="translate(0,-20.108336)">
      <path
         style="color:#000000;fill:#4d4d4d;fill-opacity:0;stroke-linecap:round;-inkscape-stroke:none;paint-order:markers fill stroke"
         d="M 37.697973,77.95373 C 39.662059,75.507726 44.325798,76.104181 50,75.991961 c 5.674202,0.11222 10.337941,-0.484235 12.302027,1.961769"
         id="path1891" />
      <path
         style="color:#000000;fill:#333333;stroke-linecap:round;-inkscape-stroke:none;paint-order:markers fill stroke"
         d="m 49.990234,75.492187 c -2.816881,0.05571 -5.400326,-0.06736 -7.572265,0.107422 -2.171939,0.174786 -3.993943,0.651896 -5.109375,2.041016 a 0.5,0.5 0 0 0 0.07617,0.703125 0.5,0.5 0 0 0 0.703125,-0.07617 c 0.848651,-1.056881 2.340658,-1.505333 4.410156,-1.671875 2.064118,-0.166109 4.643713,-0.04806 7.492187,-0.103516 2.857315,0.05651 5.442221,-0.06303 7.511719,0.103516 2.069498,0.166542 3.561505,0.614994 4.410156,1.671875 a 0.5,0.5 0 0 0 0.703125,0.07617 0.5,0.5 0 0 0 0.07617,-0.703125 c -1.115432,-1.38912 -2.937436,-1.86623 -5.109375,-2.041016 -2.171939,-0.174786 -4.755384,-0.05171 -7.572265,-0.107422 H 50 Z"
         id="path1893" />
    </g>
    <path
       style="fill:#c5985e;fill-opacity:1;stroke:#333333;stroke-width:0;stroke-linecap:round;stroke-dasharray:none;stroke-opacity:1;paint-order:markers fill stroke"
       d="m 22.115368,67.110329 c 0,0 1.714408,-4.713392 6.095667,-4.713392 4.381257,0 6.857621,4.909783 6.857621,4.909783 0,0 -3.047833,2.356697 -7.04811,2.356697 -4.000281,0 -5.905178,-2.553088 -5.905178,-2.553088 z m -9.014646,0 c 0,0 -1.714408,-4.713392 -6.095667,-4.713392 -4.381257,0 -6.857621,4.909783 -6.857621,4.909783 0,0 3.047833,2.356697 7.04811,2.356697 4.000281,0 5.905178,-2.553088 5.905178,-2.553088 z"
       transform="translate(32.391955,11.847067)" />
  </g>
</svg>
